<?xml version="1.0" standalone="no"?>
<!DOCTYPE svg PUBLIC "-//W3C//DTD SVG 20010904//EN"
 "http://www.w3.org/TR/2001/REC-SVG-20010904/DTD/svg10.dtd">
<svg version="1.0" xmlns="http://www.w3.org/2000/svg"
 width="700.000000pt" height="700.000000pt" viewBox="0 0 700.000000 700.000000"
 preserveAspectRatio="xMidYMid meet">
<metadata>
Created by potrace 1.14, written by Peter Selinger 2001-2017
</metadata>
<g transform="translate(0.000000,700.000000) scale(0.100000,-0.100000)"
fill="#000000" stroke="none">
<path d="M3278 6995 c-1 -1 -42 -5 -89 -9 -47 -4 -95 -8 -106 -10 -11 -3 -44
-7 -74 -11 -47 -6 -132 -21 -234 -40 -138 -26 -429 -116 -600 -185 -118 -47
-339 -156 -428 -212 -43 -26 -81 -48 -84 -48 -25 0 -355 -246 -480 -358 -479
-431 -811 -933 -1007 -1527 -47 -141 -60 -190 -100 -375 -25 -120 -29 -141
-46 -252 -26 -173 -35 -578 -17 -782 72 -854 483 -1684 1122 -2266 136 -124
430 -350 455 -350 5 0 10 -4 10 -10 0 -5 4 -10 10 -10 5 0 41 -20 78 -44 247
-158 613 -313 936 -396 132 -34 346 -75 446 -85 36 -4 79 -9 95 -12 73 -12
556 -11 675 2 664 69 1253 300 1773 694 650 491 1110 1198 1296 1991 16 69 32
145 36 170 4 25 9 53 11 63 2 10 8 53 13 95 6 42 13 95 16 117 11 74 14 549 4
665 -51 626 -295 1265 -680 1780 -416 557 -970 968 -1624 1205 -176 64 -454
135 -630 161 -27 4 -57 9 -65 10 -8 2 -42 6 -76 9 -33 4 -74 9 -90 11 -33 5
-540 14 -546 9z"/>
</g>
</svg>
