<?xml version="1.0" encoding="UTF-8"?>
<svg id="Layer_1" data-name="Layer 1" xmlns="http://www.w3.org/2000/svg" viewBox="0 0 661.76 291.85">
  <defs>
    <style>
      .cls-1 {
        fill: #f1f2f2;
        stroke-width: 0px;
      }
    </style>
  </defs>
  <g>
    <g>
      <path class="cls-1" d="m72.02,92.34l.37-25.12c0-1.72,1.78-2.86,5.36-3.42,3.57-.55,6.52-.83,8.86-.83l7.2.55c4.68.74,7.02,2.03,7.02,3.88l-.74,57.8c-2.46,1.73-7.42,3.42-14.87,5.08-7.45,1.66-15.97,2.49-25.58,2.49-17.85,0-32.26-5.78-43.21-17.36C5.48,103.85,0,86.86,0,64.45,0,45.37,5.36,29.86,16.07,17.91,26.78,5.97,41.61,0,60.57,0c8.62,0,16.4.83,23.36,2.49,6.95,1.66,11.73,3.91,14.31,6.74.12.99.19,2.83.19,5.54s-.92,6.56-2.77,11.54c-1.85,4.99-3.94,8.71-6.28,11.17-2.34,2.46-4.03,3.69-5.08,3.69s-2.16-.46-3.32-1.39c-1.17-.92-3.48-1.91-6.93-2.95-3.45-1.04-6.77-1.57-9.97-1.57-7.64,0-13.82,2.46-18.56,7.39-4.74,4.93-7.11,12.56-7.11,22.9s2.43,18.19,7.29,23.55c4.86,5.36,10.46,8.03,16.81,8.03s9.51-1.6,9.51-4.8Z"/>
      <path class="cls-1" d="m201.83,131.3c-10.71,0-16.5-1.72-17.36-5.17l-6.09-23.82h-29.36l-5.36,22.9c-.74,3.82-6.65,5.72-17.73,5.72-5.91,0-10.28-.34-13.11-1.02-2.83-.68-4.25-1.2-4.25-1.57L141.25,3.32c0-.98,8.43-1.48,25.3-1.48s25.3.49,25.3,1.48l31.95,125.21c0,.86-2.83,1.54-8.5,2.03-5.66.49-10.16.74-13.48.74Zm-48.2-52.45h19.39l-8.31-38.23h-1.11l-9.97,38.23Z"/>
      <path class="cls-1" d="m361.9,131.12c-10.96,0-16.44-1.23-16.44-3.69l-3.88-74.05-22.53,74.98c-.49,1.48-4.68,2.22-12.56,2.22s-11.94-.68-12.19-2.03l-23.27-75.9-2.59,73.68c-.12,1.85-2.46,3.11-7.02,3.79-4.56.68-8.34,1.02-11.36,1.02s-5.94-.18-8.77-.55c-5.91-.86-8.8-2.4-8.68-4.62l4.25-120.04c0-2.95,7.51-4.43,22.53-4.43,4.43,0,9.85.34,16.25,1.02,6.4.68,9.97,2,10.71,3.97l20.68,58.17,18.1-58.36c1.11-3.2,9.6-4.8,25.48-4.8,4.55,0,10,.34,16.34,1.02,6.34.68,9.51,1.88,9.51,3.6l5.36,121.15c0,1.36-2.4,2.34-7.2,2.95-4.8.62-9.05.92-12.74.92Z"/>
      <path class="cls-1" d="m458.45,53c2.34,0,3.51,4.31,3.51,12.93,0,2.59-.28,5.63-.83,9.14-.55,3.51-1.57,5.26-3.05,5.26h-23.45v18.47h33.98c2.09,0,3.51,2.71,4.25,8.13.37,2.34.56,4.83.56,7.48s-.37,6.07-1.11,10.25c-.74,4.19-1.97,6.28-3.69,6.28h-63.16c-4.68,0-7.02-1.91-7.02-5.72V6.46c0-3.2,1.41-4.8,4.25-4.8h66.11c2.59,0,3.88,5.45,3.88,16.34s-1.29,16.34-3.88,16.34h-34.17v18.65h23.82Z"/>
    </g>
    <g>
      <path class="cls-1" d="m64.45,291.85c-19.02,0-34.51-6.22-46.49-18.67C5.99,260.72,0,242.55,0,218.67s6.06-41.99,18.17-54.3c12.11-12.31,27.74-18.47,46.89-18.47s34.61,6.06,46.38,18.17c11.77,12.11,17.66,30.45,17.66,55.01s-6.02,42.83-18.07,54.81c-12.05,11.98-27.58,17.96-46.59,17.96Zm.1-106.98c-6.5,0-11.94,2.98-16.34,8.93-4.4,5.96-6.6,14.31-6.6,25.07s2.1,19.01,6.29,24.76c4.19,5.75,9.71,8.63,16.54,8.63s12.38-2.91,16.65-8.73c4.26-5.82,6.39-14.14,6.39-24.97s-2.2-19.15-6.6-24.97c-4.4-5.82-9.85-8.73-16.34-8.73Z"/>
      <path class="cls-1" d="m129.59,150.36c0-.68,2.94-1.32,8.83-1.93,5.89-.61,10.72-.91,14.51-.91,15.02,0,22.87,1.96,23.55,5.89l17.46,89.32,16.44-89.32c.81-3.92,9.2-5.89,25.17-5.89,3.92,0,8.86.27,14.82.81,5.95.54,8.93,1.15,8.93,1.83l-35.93,134.38c-.54,2.17-4.54,3.59-11.98,4.26-11.5,1.22-21.96,1.45-31.36.71-9.41-.74-14.38-2.06-14.92-3.96l-35.52-135.2Z"/>
      <path class="cls-1" d="m334.41,204.15c2.57,0,3.86,4.74,3.86,14.21,0,2.84-.3,6.19-.91,10.05-.61,3.86-1.73,5.79-3.35,5.79h-25.78v20.3h37.35c2.3,0,3.86,2.98,4.67,8.93.41,2.57.61,5.31.61,8.22s-.41,6.67-1.22,11.27c-.81,4.6-2.17,6.9-4.06,6.9h-69.42c-5.14,0-7.71-2.1-7.71-6.29v-130.53c0-3.52,1.55-5.28,4.67-5.28h72.67c2.84,0,4.26,5.99,4.26,17.96s-1.42,17.96-4.26,17.96h-37.55v20.5h26.19Z"/>
      <path class="cls-1" d="m405.6,286.97c0,2.17-6.43,3.25-19.28,3.25s-19.49-1.01-19.49-3.04v-132.35c0-4.74,2.5-7.1,7.51-7.1h38.77c35.59,0,53.39,13.87,53.39,41.61,0,8.39-1.62,16-4.87,22.84-3.25,6.84-7.85,12.28-13.8,16.34l25.58,42.63c-1.08,3.25-4.6,6.97-10.55,11.16-8.12,5.82-14.82,8.73-20.1,8.73s-9.2-1.89-11.77-5.68l-19.08-44.46h-6.29v46.08Zm0-103.33v30.45h1.02c12.86,0,19.28-5.34,19.28-16.04,0-4.87-1.25-8.49-3.76-10.86-2.51-2.36-6.6-3.55-12.28-3.55h-4.26Z"/>
    </g>
  </g>
  <path class="cls-1" d="m547.21,207.65c-21.32,0-31.98-2.56-31.98-7.69v-15.38c0-12.14,10.12-27.66,30.36-46.55,7.55-7.01,14.5-14.98,20.85-23.88,6.34-8.91,9.51-17,9.51-24.29,0-13.49-7.76-20.24-23.27-20.24s-31.11,5.13-46.75,15.38c-10.26-10.25-17.41-21.86-21.46-34.81-1.62-4.31-2.43-8.16-2.43-11.54s.67-6.54,2.02-9.51c2.16-7.01,12.21-13.62,30.15-19.83,17.95-6.2,36.9-9.31,56.87-9.31,30.22,0,52.89,6.48,68,19.43,15.11,12.95,22.67,30.63,22.67,53.03,0,10.26-2.5,20.31-7.49,30.15-5,9.85-11.07,18.49-18.22,25.91-7.15,7.42-14.23,14.37-21.25,20.84-17,16.19-25.5,28.48-25.5,36.84v12.14c0,3.24-5,5.6-14.98,7.08-9.98,1.49-19.02,2.23-27.12,2.23Zm39.67,81.77c0,1.62-11.13,2.43-33.4,2.43s-33.39-.68-33.39-2.02v-63.55c0-2.16,11.13-3.24,33.39-3.24s33.4.68,33.4,2.02v64.36Z"/>
</svg>