<svg class="max-w-max w-full fill-none" viewBox="0 0 40 41"  xmlns="http://www.w3.org/2000/svg">
<path fill-rule="evenodd" class="" clip-rule="evenodd" d="M15 8H25L28.7031 2.44531C29.2578 1.60938 28.6641 0.5 27.6641 0.5H12.3359C11.3359 0.5 10.7422 1.60938 11.2969 2.44531L15 8ZM25 10.5H15C14.8021 10.6302 14.5833 10.7708 14.3484 10.9219C14.2309 10.9974 14.1094 11.0755 13.9844 11.1562L13.9765 11.1613C9.54339 13.9994 0 20.1092 0 33C0 37.1406 3.35938 40.5 7.5 40.5H32.5C36.6406 40.5 40 37.1406 40 33C40 20.1092 30.4566 13.9994 26.0235 11.1613L26.0156 11.1562C25.6328 10.9141 25.2969 10.6953 25 10.5Z" fill="#C6E3DF"/>
<path fill-rule="evenodd" clip-rule="evenodd" d="M35.6144 19.5H4.38557C1.89357 22.8613 0 27.2579 0 33C0 37.1406 3.35938 40.5 7.5 40.5H32.5C36.6406 40.5 40 37.1406 40 33C40 27.2579 38.1064 22.8613 35.6144 19.5Z" fill="#76BCB2"/>
</svg>
