<svg class="w-full max-w-max fill-none" viewBox="0 0 48 39" fill="none" xmlns="http://www.w3.org/2000/svg">
<path fill-rule="evenodd" clip-rule="evenodd" d="M32.3068 8.25736C32.3551 4.02999 28.8037 0.511403 24.516 0.500028C20.2265 0.488652 16.6707 3.96786 16.6856 8.21624C16.7014 12.595 20.129 16.0409 24.4966 16.0409C28.8344 16.0401 32.2567 12.6335 32.3068 8.25736ZM15.6316 38.493H24.5014L24.5023 38.4939L27.4589 38.4941C29.43 38.4943 31.401 38.4945 33.3721 38.4939C34.5108 38.493 34.9598 38.045 34.9598 36.9074L34.9603 34.9756C34.9612 31.4359 34.9622 27.8962 34.9563 24.3566C34.9554 23.9217 34.9238 23.4841 34.8649 23.0527C34.4677 20.1414 31.7361 17.6983 28.7918 17.6642C26.6255 17.6382 24.4582 17.6442 22.291 17.6502H22.291H22.2909H22.2908H22.2907C21.6768 17.6519 21.063 17.6536 20.4492 17.6545C20.1144 17.6545 19.7788 17.6957 19.4467 17.742C16.5182 18.1542 14.0659 20.8695 14.0457 23.8009C14.0237 26.9247 14.0264 30.0481 14.0291 33.1717V33.1718V33.1719V33.1719V33.172C14.0302 34.4215 14.0313 35.671 14.0308 36.9205C14.0299 38.0485 14.4833 38.493 15.6316 38.493ZM37.514 37.4061L37.5141 37.405L37.5141 37.4043C37.5389 36.633 37.5636 35.8696 37.566 35.1058C37.5724 33.1857 37.5716 31.2654 37.5707 29.3451C37.5701 27.868 37.5694 26.3909 37.5721 24.914C37.5739 23.6706 37.5018 22.4394 37.0853 21.2519C37.0706 21.2107 37.0694 21.1643 37.0678 21.1016C37.0669 21.0674 37.0659 21.0282 37.0625 20.9824C37.6599 21.0172 38.2576 21.007 38.8536 20.9968C40.1762 20.9742 41.4901 20.9518 42.7736 21.4217C45.196 22.3081 46.9533 24.7145 46.9805 27.2837C47.0069 29.7181 47.0042 32.1533 46.9831 34.5886C46.9647 36.7719 45.3137 38.4441 43.133 38.4826C41.836 38.5053 40.5386 38.5004 39.2414 38.4955H39.241H39.2409H39.2408H39.2407C38.6936 38.4934 38.1464 38.4913 37.5993 38.4913C37.5282 38.4913 37.457 38.4756 37.4816 38.4791C37.491 38.1196 37.5025 37.7626 37.514 37.4073L37.514 37.4061ZM9.36233 38.4929H11.5844L11.5853 38.4911C11.5668 38.315 11.5442 38.1426 11.522 37.9727C11.4744 37.6091 11.4283 37.2571 11.4271 36.9047L11.4258 36.4715C11.4139 32.4314 11.402 28.3913 11.4359 24.3512C11.4416 23.706 11.5481 23.0609 11.6545 22.4164C11.6954 22.1684 11.7364 21.9205 11.7715 21.6727C11.7915 21.5328 11.8374 21.3964 11.8896 21.2415L11.8896 21.2415C11.9154 21.1649 11.9428 21.0837 11.9692 20.9954C11.5955 20.9954 11.2277 20.9932 10.8641 20.991H10.864H10.864C10.077 20.9863 9.30936 20.9818 8.54256 20.9997C4.75039 21.0881 2.00379 23.8962 2.00203 27.6694C2.00027 29.9148 1.99851 32.1601 2.00203 34.4055C2.00554 36.8172 3.65649 38.4763 6.06834 38.492C6.81966 38.4962 7.57057 38.4951 8.32164 38.4939H8.32174H8.32183C8.66861 38.4934 9.01543 38.4929 9.36233 38.4929ZM4.93487 13.499C5.03064 10.1826 7.67972 7.6589 10.9614 7.75691C14.1517 7.85317 16.6822 10.5159 16.6207 13.6381C16.5565 16.8741 13.8486 19.4415 10.7092 19.3732C7.44073 19.3015 4.84525 16.6264 4.93487 13.4981V13.499ZM38.1246 19.3819C41.2692 19.4974 43.964 16.8758 44.0545 13.6109C44.1406 10.5089 41.5486 7.84348 38.361 7.75597C35.1135 7.66672 32.4724 10.1755 32.3784 13.4386C32.287 16.6229 34.8368 19.2603 38.1246 19.3819Z" fill="#C6E3DF"/>
<path fill-rule="evenodd" clip-rule="evenodd" d="M24.5014 38.493H15.6316C14.4833 38.493 14.0299 38.0485 14.0308 36.9205C14.0313 35.671 14.0302 34.4215 14.0291 33.172V33.1719V33.1719V33.1718V33.1717V33.1717C14.0264 30.0481 14.0237 26.9247 14.0457 23.8009C14.0568 22.1851 14.8069 20.635 15.9683 19.5H33.0198C33.9954 20.4549 34.6808 21.7036 34.8649 23.0527C34.9238 23.4841 34.9554 23.9217 34.9563 24.3566C34.9622 27.8962 34.9612 31.4359 34.9603 34.9756L34.9598 36.9074C34.9598 38.045 34.5108 38.493 33.3721 38.4939C31.401 38.4945 29.43 38.4943 27.4589 38.4941L24.5023 38.4939L24.5014 38.493ZM37.5141 37.405L37.514 37.4061L37.514 37.4073C37.5025 37.7626 37.491 38.1196 37.4816 38.4791C37.457 38.4756 37.5282 38.4913 37.5993 38.4913C38.1464 38.4913 38.6935 38.4934 39.2406 38.4955H39.2407H39.2408H39.2409H39.241H39.2414C40.5386 38.5004 41.836 38.5053 43.133 38.4826C45.3137 38.4441 46.9647 36.7719 46.9831 34.5886C47.0042 32.1533 47.0069 29.7181 46.9805 27.2837C46.9533 24.7145 45.196 22.3081 42.7736 21.4217C41.4901 20.9518 40.1762 20.9742 38.8536 20.9968C38.2576 21.007 37.6599 21.0172 37.0625 20.9824C37.0659 21.0282 37.0669 21.0673 37.0678 21.1015V21.1016C37.0694 21.1643 37.0706 21.2107 37.0853 21.2519C37.5018 22.4394 37.5739 23.6706 37.5721 24.914C37.5694 26.3909 37.5701 27.868 37.5707 29.3451C37.5716 31.2654 37.5724 33.1857 37.566 35.1058C37.5636 35.8696 37.5389 36.633 37.5141 37.4043L37.5141 37.405ZM11.5844 38.4929H9.36233C9.01543 38.4929 8.66861 38.4934 8.32183 38.4939H8.32174H8.32164H8.32154C7.57051 38.4951 6.81963 38.4962 6.06834 38.492C3.65649 38.4763 2.00554 36.8172 2.00203 34.4055C1.99851 32.1601 2.00027 29.9148 2.00203 27.6694C2.00379 23.8962 4.75039 21.0881 8.54256 20.9997C9.30934 20.9818 10.0769 20.9863 10.8639 20.991L10.864 20.991H10.864H10.8641C11.2277 20.9932 11.5955 20.9954 11.9692 20.9954C11.9428 21.0837 11.9154 21.1649 11.8896 21.2415L11.8896 21.2415C11.8374 21.3964 11.7915 21.5328 11.7715 21.6727C11.7364 21.9205 11.6954 22.1684 11.6545 22.4164C11.5481 23.0609 11.4416 23.706 11.4359 24.3512C11.402 28.3913 11.4139 32.4314 11.4258 36.4715L11.4271 36.9047C11.4283 37.2571 11.4744 37.6091 11.522 37.9727C11.5442 38.1426 11.5668 38.315 11.5853 38.4911L11.5844 38.4929Z" fill="#76BCB2"/>
</svg>
