<svg class="w-full max-w-full fill-none" viewBox="0 0 41 41" xmlns="http://www.w3.org/2000/svg">
<path d="M20.5005 -8.91028e-07C18.4192 -8.91028e-07 16.3388 -8.91028e-07 14.2575 -8.91028e-07C13.3433 -8.91028e-07 12.8823 0.455627 12.8815 1.37489C12.8791 5.03111 12.8807 8.68734 12.8799 12.3436C12.8799 12.6943 12.7099 12.8699 12.37 12.8705C8.75497 12.8705 5.13999 12.8913 1.525 12.8576C0.48277 12.848 -0.00712607 13.4462 7.82872e-05 14.3927C0.0320977 18.4757 0.0136865 22.5595 0.0136865 26.6426C0.0136865 27.7132 0.433941 28.1295 1.5186 28.1295C5.14719 28.1295 8.77579 28.136 12.4036 28.1207C12.791 28.1191 12.8903 28.2264 12.8887 28.61C12.8743 32.2398 12.8799 35.8688 12.8799 39.4986C12.8807 40.5812 13.2969 41 14.3704 41C18.4921 41 22.6146 41 26.7362 41C27.6784 41 28.1323 40.5508 28.1331 39.6059C28.1355 35.9633 28.1339 32.3199 28.1339 28.6773C28.1339 28.3127 28.3103 28.1301 28.663 28.1295C32.278 28.1295 35.893 28.1295 39.508 28.1295C40.5846 28.1295 41.0001 27.7108 41.0001 26.6297C41.0001 22.5331 41.0001 18.4365 41.0001 14.3398C41.0001 13.2957 40.5734 12.8721 39.516 12.8713C35.8746 12.8713 32.2324 12.8657 28.591 12.8793C28.2211 12.8809 28.1243 12.7776 28.1259 12.4116C28.1395 8.76901 28.1347 5.1256 28.1339 1.48299C28.1339 0.427601 27.7096 0.000800641 26.6634 0.000800641C24.6094 0.000800641 22.5545 0.000800641 20.5005 0.000800641V-8.91028e-07Z" fill="#C6E3DF"/>
<path fill-rule="evenodd" clip-rule="evenodd" d="M41.0001 20L0.0189363 20C0.0190119 21.1222 0.0176587 22.2444 0.0163055 23.3666C0.0149887 24.4586 0.0136719 25.5506 0.0136719 26.6426C0.0136719 27.7132 0.433926 28.1295 1.51858 28.1295C2.34798 28.1295 3.17738 28.1299 4.00677 28.1302C6.80593 28.1313 9.60499 28.1325 12.4036 28.1207C12.791 28.1191 12.8903 28.2264 12.8887 28.61C12.8774 31.4458 12.8784 34.2811 12.8793 37.1166C12.8796 37.9106 12.8799 38.7046 12.8799 39.4986C12.8807 40.5812 13.2969 41 14.3704 41H26.7362C27.6784 41 28.1323 40.5508 28.1331 39.6059C28.1348 37.0044 28.1345 34.4024 28.1341 31.8006C28.134 30.7595 28.1339 29.7183 28.1339 28.6773C28.1339 28.3127 28.3103 28.1301 28.663 28.1295H39.508C40.5846 28.1295 41.0001 27.7108 41.0001 26.6297V20Z" fill="#76BCB2"/>
</svg>
