<svg class="w-full max-w-full fill-none" viewBox="0 0 40 43" xmlns="http://www.w3.org/2000/svg">
<path d="M13.9942 25.7634C13.8533 25.9151 13.723 26.062 13.5856 26.2006C12.7601 27.0333 11.789 27.6434 10.6887 28.0367C9.43807 28.4857 8.14952 28.6042 6.83492 28.4063C4.69246 28.0829 2.96453 27.0476 1.63926 25.3429C0.989066 24.5054 0.544942 23.5636 0.270177 22.5365C0.00607197 21.545 -0.0673565 20.5405 0.0629198 19.5312C0.325841 17.4996 1.22948 15.7949 2.78332 14.4515C3.13033 14.1518 3.51998 13.8995 3.90252 13.6436C4.02687 13.5607 4.07661 13.4802 4.05885 13.3356C3.99134 12.7954 3.99134 12.2553 4.04345 11.7103C4.13701 10.752 4.39757 9.84338 4.818 8.98098C5.30713 7.97761 5.98457 7.11639 6.83729 6.39614C7.69356 5.67234 8.65878 5.1523 9.73534 4.83008C10.7633 4.52208 11.8079 4.4439 12.8691 4.55643C13.0147 4.57183 13.0834 4.50905 13.1438 4.40362C13.4897 3.79709 13.9208 3.25809 14.4205 2.77359C15.246 1.9716 16.197 1.36982 17.2831 0.980077C18.2234 0.641276 19.1875 0.476615 20.1847 0.502676C20.9498 0.522815 21.6971 0.651938 22.4266 0.887677C24.1013 1.42905 25.4467 2.41939 26.4735 3.84329C26.9863 4.55406 27.3712 5.32999 27.6116 6.1758C27.7016 6.49447 27.7052 6.48617 28.038 6.49565C30.9088 6.57976 33.1495 7.80702 34.733 10.2106C35.2778 11.0375 35.6307 11.9473 35.8095 12.9222C35.8226 12.9956 35.864 13.0691 35.8593 13.1414C35.838 13.4494 36.0097 13.6034 36.2548 13.7574C37.721 14.6766 38.7715 15.9477 39.4217 17.5552C39.9109 18.7635 40.0968 20.0204 39.9523 21.3057C39.674 23.7757 38.5074 25.7386 36.4491 27.1459C35.459 27.8223 34.3647 28.2428 33.172 28.4087C32.1073 28.5556 31.0556 28.5165 30.0122 28.2476C28.4845 27.8543 27.1971 27.0689 26.1324 25.9091C26.0933 25.8677 26.0684 25.8132 26.0211 25.7409C25.8659 25.9044 25.7498 26.03 25.6302 26.152C25.0203 26.7668 24.3263 27.2655 23.5541 27.6588C23.483 27.6944 23.4155 27.7998 23.4049 27.8792C23.2142 29.3457 23.1798 30.817 23.3232 32.2883C23.3942 33.0228 23.4688 33.7608 23.6027 34.4858C23.7412 35.238 23.9319 35.9831 24.1415 36.7188C24.3298 37.3762 24.5442 38.0301 24.8036 38.6615C25.1198 39.4327 25.4822 40.1861 25.847 40.936C26.1265 41.5105 25.9986 42.0981 25.4727 42.3694C25.3116 42.4523 25.1091 42.4902 24.9256 42.4926C23.8976 42.5044 22.8684 42.4985 21.8404 42.4985C19.5759 42.4985 17.3103 42.4985 15.0459 42.4985C14.6432 42.4985 14.3341 42.3339 14.1316 41.982C13.9231 41.6207 13.9338 41.1931 14.2192 40.8839C14.8339 40.2158 15.0992 39.3984 15.3005 38.5443C15.593 37.3099 15.7067 36.0518 15.7991 34.7902C15.9768 32.3902 15.9543 29.9866 15.991 27.583C15.9933 27.4551 15.9756 27.352 15.8465 27.2786C15.1809 26.8959 14.5994 26.4079 14.0783 25.8464C14.0629 25.8298 14.0451 25.8156 13.9942 25.7682V25.7634Z" fill="#C6E3DF"/>
<path fill-rule="evenodd" clip-rule="evenodd" d="M13.8696 25.8987C13.9105 25.8541 13.9519 25.809 13.9942 25.7634V25.7682C14.0152 25.7877 14.0305 25.8016 14.0424 25.8123C14.0594 25.8277 14.0692 25.8366 14.0783 25.8464C14.5994 26.4079 15.1809 26.8959 15.8465 27.2786C15.9756 27.352 15.9933 27.4551 15.991 27.583C15.9826 28.1317 15.9773 28.6804 15.972 29.229C15.9541 31.0838 15.9362 32.9381 15.7991 34.7902C15.7067 36.0518 15.593 37.3099 15.3005 38.5443C15.0992 39.3984 14.8339 40.2158 14.2192 40.8839C13.9338 41.1931 13.9231 41.6207 14.1316 41.982C14.3341 42.3339 14.6432 42.4985 15.0459 42.4985H21.8404C22.0974 42.4985 22.3544 42.4989 22.6115 42.4993C23.3829 42.5004 24.1545 42.5015 24.9256 42.4926C25.1091 42.4902 25.3116 42.4523 25.4727 42.3694C25.9986 42.0981 26.1265 41.5105 25.847 40.936C25.4822 40.1861 25.1198 39.4327 24.8036 38.6615C24.5442 38.0301 24.3298 37.3762 24.1415 36.7188C23.9319 35.9831 23.7412 35.238 23.6027 34.4858C23.4688 33.7608 23.3942 33.0228 23.3232 32.2883C23.1798 30.817 23.2142 29.3457 23.4049 27.8792C23.4155 27.7998 23.483 27.6944 23.5541 27.6588C24.3263 27.2655 25.0203 26.7668 25.6302 26.152C25.7107 26.0699 25.7895 25.9863 25.8797 25.8906C25.9236 25.8439 25.9702 25.7945 26.0211 25.7409C26.0377 25.7663 26.0515 25.7894 26.0642 25.8106C26.0876 25.8498 26.107 25.8822 26.1324 25.9091C27.1971 27.0689 28.4845 27.8543 30.0122 28.2476C31.0556 28.5165 32.1073 28.5556 33.172 28.4087C34.3647 28.2428 35.459 27.8223 36.4491 27.1459C38.5074 25.7386 39.674 23.7757 39.9523 21.3057C39.9827 21.0358 39.9984 20.7672 39.9999 20.5H3.93439e-06C-0.000691188 21.1831 0.0907288 21.8628 0.270177 22.5365C0.544942 23.5636 0.989066 24.5054 1.63926 25.3429C2.96453 27.0476 4.69246 28.0829 6.83492 28.4063C8.14952 28.6042 9.43807 28.4857 10.6887 28.0367C11.789 27.6434 12.7601 27.0333 13.5856 26.2006C13.6817 26.1036 13.7744 26.0025 13.8696 25.8987Z" fill="#76BCB2"/>
</svg>
